<?xml version="1.0" encoding="UTF-8" standalone="no"?>
<svg
   width="256"
   height="214"
   viewBox="0 0 2560 2140"
   version="1.1"
   id="svg23"
   sodipodi:docname="marko.svg"
   inkscape:version="1.3.2 (091e20e, 2023-11-25)"
   xmlns:inkscape="http://www.inkscape.org/namespaces/inkscape"
   xmlns:sodipodi="http://sodipodi.sourceforge.net/DTD/sodipodi-0.dtd"
   xmlns="http://www.w3.org/2000/svg"
   xmlns:svg="http://www.w3.org/2000/svg">
  <defs
     id="defs23" />
  <sodipodi:namedview
     id="namedview23"
     pagecolor="#ffffff"
     bordercolor="#404654"
     borderopacity="0.25"
     inkscape:showpageshadow="2"
     inkscape:pageopacity="0.0"
     inkscape:pagecheckerboard="0"
     inkscape:deskcolor="#404654"
     inkscape:zoom="1.1028037"
     inkscape:cx="127.85593"
     inkscape:cy="107"
     inkscape:window-width="1640"
     inkscape:window-height="931"
     inkscape:window-x="0"
     inkscape:window-y="38"
     inkscape:window-maximized="0"
     inkscape:current-layer="svg23" />
  <style
     id="style1">stop:not([stop-color]){stop-color:inherit}</style>
  <linearGradient
     id="a"
     x2="0"
     y2="1">
    <stop
       offset=".685"
       stop-color="#404654"
       id="stop2" />
    <stop
       offset="1"
       stop-color="#404654"
       id="stop3" />
  </linearGradient>
  <linearGradient
     id="b"
     x2="0"
     y2="1"
     stop-color="#404654">
    <stop
       offset=".5"
       id="stop4" />
    <stop
       offset=".5"
       stop-color="#404654"
       id="stop5" />
    <stop
       offset=".833"
       id="stop6" />
  </linearGradient>
  <linearGradient
     id="c"
     x2="0"
     y2="1"
     stop-color="#404654">
    <stop
       offset="0"
       stop-opacity="0"
       id="stop7" />
    <stop
       offset="1"
       id="stop8" />
  </linearGradient>
  <linearGradient
     id="d"
     x2="0"
     y2="1"
     stop-color="#404654">
    <stop
       offset="0"
       id="stop9" />
    <stop
       offset="1"
       stop-opacity="0"
       id="stop10" />
  </linearGradient>
  <linearGradient
     id="e"
     x2="0"
     y2="1"
     stop-color="#404654">
    <stop
       offset="0"
       id="stop11" />
    <stop
       offset="1"
       stop-opacity="0"
       id="stop12" />
  </linearGradient>
  <linearGradient
     id="f"
     x2="0"
     y2="1"
     stop-color="#404654">
    <stop
       offset="0"
       id="stop13" />
    <stop
       offset=".833"
       stop-opacity="0"
       id="stop14" />
  </linearGradient>
  <linearGradient
     id="g"
     x2="0"
     y2="1"
     stop-color="#404654">
    <stop
       offset="0"
       stop-opacity="0"
       id="stop15" />
    <stop
       offset="1"
       id="stop16" />
  </linearGradient>
  <linearGradient
     id="h"
     x2="0"
     y2="1"
     stop-color="#404654">
    <stop
       offset="0"
       id="stop17" />
    <stop
       offset="1"
       stop-opacity="0"
       id="stop18" />
  </linearGradient>
  <g
     id="g23">
    <path
       fill="#404654"
       d="M1281 0h361l-427 697H854z"
       id="path1"
       style="fill:#404654;fill-opacity:1" />
    <path
       fill="url(#a)"
       d="M427 0h361L361 697l427 697H427L0 698z"
       id="path2"
       style="fill:#404654;fill-opacity:1" />
    <path
       fill="#00ac71"
       d="M854 697h361L788 0H427z"
       id="path3"
       style="fill:#404654;fill-opacity:1" />
    <path
       fill="url(#b)"
       d="M1642 0h-361l428 697-428 697h361l428-697z"
       id="path4"
       style="fill:#404654;fill-opacity:1" />
    <path
       fill="url(#c)"
       d="M1493 246h-361L855 698h361z"
       id="path6"
       style="fill:#404654;fill-opacity:1" />
    <path
       fill="url(#d)"
       d="M1005 452h361L1642 0h-361z"
       id="path8"
       style="fill:#404654;fill-opacity:1" />
    <path
       fill="url(#e)"
       d="M1919 452h-361L1281 0h361z"
       id="path10"
       style="fill:#404654;fill-opacity:1" />
    <path
       fill="url(#f)"
       d="M150 452h361L788 0H427z"
       id="path12"
       style="fill:#404654;fill-opacity:1" />
    <path
       fill="url(#g)"
       d="M638 246H277L0 698h361z"
       id="path14"
       style="fill:#404654;fill-opacity:1" />
    <path
       fill="url(#h)"
       d="M1065 452H704L427 0h361z"
       id="path16"
       style="fill:#404654;fill-opacity:1" />
    <path
       fill="url(#i)"
       d="M2132 0h-361l427 697-428 697h361l428-697z"
       id="path18"
       style="fill:#404654;fill-opacity:1" />
  </g>
  <linearGradient
     id="i"
     x2="0"
     y2="1"
     stop-color="#404654">
    <stop
       offset="0"
       stop-color="#e02a89"
       id="stop19" />
    <stop
       offset=".31"
       id="stop20" />
    <stop
       offset=".5"
       id="stop21" />
    <stop
       offset=".5"
       stop-color="#404654"
       id="stop22" />
    <stop
       offset=".833"
       id="stop23" />
  </linearGradient>
  <style
     id="style23">
    .text { fill: #404654 }
    @media (prefers-color-scheme: dark) {
      .text { fill: #404654 }
    }
  </style>
  <path
     class="text"
     d="M840 1895c0-27-2-53-7-76-9-45-32-79-72-97-66-28-142-12-202 26-33-31-75-40-114-40-55-1-111 6-164 22v393h94v-328c39-6 102-16 121 22 11 19 16 50 16 92v214h94v-225c-1-29-2-63-11-88 40-22 108-34 133 7 10 19 16 50 16 92v214h96zm91-95c34-10 69-16 104-16 56-1 87 33 84 80v16c-45-8-84-15-134-2-39 9-73 27-91 61-18 30-19 85-2 120 18 36 43 51 85 63 56 15 160 2 232-11v-246c-1-81-24-121-86-147-59-20-141-13-204 6zm65 245c-31-19-27-79 8-91 38-16 82-13 117-5v104c-39 4-93 11-125-8zm529-322c-83-27-175-13-247 14v387h94v-326c50-12 88-10 137 4zm203 175c57-59 113-120 168-181h-111c-46 55-96 107-145 159v-356l-94 16v587h94v-186c60 48 121 122 157 187h109c-45-88-135-190-178-226zm535-66c-18-50-54-90-102-110-51-21-109-20-157 0-49 20-86 60-102 110-19 57-19 118 0 175 17 51 55 93 105 115a189 189 0 00155-3c53-23 84-64 102-112 19-57 19-118-1-175zm-108 185c-37 51-113 44-146 0-32-47-37-139 0-193 37-51 118-43 146 0 32 41 37 139 0 193z"
     id="path23" />
</svg>
