<svg xmlns="http://www.w3.org/2000/svg" viewBox="0 0 2267.86 1959.24" xmlns:v="https://vecta.io/nano"><defs><clipPath id="A" transform="translate(0 -301.14)"><circle cx="1096.65" cy="1530.63" r="673.74" fill="none"/></clipPath><clipPath id="B" transform="translate(0 -301.14)"><path d="M1674.09 1036.34l-665.39 298.04L523.52 960.1l134.75-250.68 8.49-199.85 18.48-6.93-1.17-187.72 165.21 139.2 249.23-82.57L1332.9 453l200.17-155.73-11.89 219.38 18.4 5.84-1.63 203.22 136.14 310.63z" fill="none"/></clipPath><clipPath id="C" transform="translate(0 -301.14)"><path d="M1023.62 922.97l39.84 68.69-45.68 123.83-32.74-126.07 38.58-66.45z" fill="none"/></clipPath><clipPath id="D" transform="translate(0 -301.14)"><path d="M1058.74,840.06C1080.55,924.21,1157,986.35,1248,986.35c108,0,195.49-87.52,195.49-195.48a196.15,196.15,0,0,0-4.44-41.63Z" fill="none"/></clipPath><clipPath id="E" transform="translate(0 -301.14)"><path d="M982.92,835C968,918.42,917.31,979.84,857,979.84c-72,0-130.32-87.53-130.32-195.49a289.83,289.83,0,0,1,4-48.17Z" fill="none"/></clipPath><clipPath id="F" transform="translate(0 -301.14)"><circle cx="1226.82" cy="848.92" r="42.5" transform="matrix(.707107 -.707107 .707107 .707107 -240.95 1116.14)" fill="none"/></clipPath><clipPath id="G" transform="translate(0 -301.14)"><ellipse cx="862.26" cy="829.53" rx="38.94" ry="29.78" transform="matrix(.027224 -.999629 .999629 .027224 9.52 1668.85)" fill="none"/></clipPath></defs><path d="M1607.09 485.68l365.04 462.07-196.38 538.33-1494.82-152.49 152.48-628.43 266.64-188.57 907.04-30.91z" fill="#2f423f"/><circle cx="1096.65" cy="1229.49" r="673.74" fill="#e23b3b"/><g clip-path="url(#A)"><path d="M1366.3 1013.28s152.72 211 161.31 236.73-89.72 384.68-89.72 384.68l-88.69 58.17 100.14-334-78.27 69.68 66.82-200.45z" fill="#f15249"/><path d="M1593.48 1657.6L1489 1512.45l-86 187-442.39 89.88L737 1653.45l-123-260 72 35-122-338 10.02-58.07 209.05-187.1 301.63 208.1L1463 880.45l120 245-184.84 459.88 403.41-130.09-34.37-612.82-596.59-417.14-699.68 196.64-249.13 445.77 69.68 417.14 202.36 306.41 254.87 168h804.68l40.09-301.64z" fill="#c93131"/><path d="M969.21 1173.65l-38.19 185.18 86.87 154.64 234.81-22.91 57.28-168-89.73-179.46-251.04 30.55z" fill="#f15249"/></g><path d="M818.39 969.38l-130.78 129.81 21 356.05 274.91 231.95 300.68-86.86-300.68 12.41-168-191.86-8.59-280.64 109.78-81.14-98.32-89.72z" fill="#f15249"/><path d="M.14 926.31l215 478.94 516.31 473.61L471 1342.45l-40-422 160-209 417.7 321.79L1655 732.45l115.9 130.33-21.31 76.24-276.8 498.81c-7.23 10.11 71.47-33.63 161.26-85.43l-163.28 584.2L2023 1590.04l244.9-653.84-345.5-430.18L1539 283.73l.54-62.38-18.4-5.84L1531.71 0l-199.84 152.86-233.07-83L847 152.98 685.24 14.36V201.5l-20.79 6.93-3.73 96.16-360.84 256.82zm1672.67-222.62l5-2.75.29.56zM544.24 623.31v-.05l.87.82z" fill="#918b70"/><g clip-path="url(#B)" fill="#75705a"><path d="M1687.95 744.44l-231.45-170-798.23-166.16-134.75 250.68 485.18 374.28 679.25-288.8zM1526.22 224.6l-422.8-157.1-432.48 143.75L791.08 47.21l598.83-2.82 136.31 180.21z"/></g><path d="M702.09 425.68l-5.3 205.55 313.35 225.6 446.77-179.39 22.4-239.84-459.39 107.52-317.83-119.44z" fill="#e5e1c7"/><path d="M856.21 749.06l168.6-127.38 182.58 155.11-198.69 80.86-152.49-108.59z" fill="#c6c2a7"/><path d="M1055.36 695.45c24 21 81.8 81.1 105.82 102.13l-151 59.24-117-80 97.46-85.49 64.72 4.16" fill="#b6ad8c"/><path d="M1439 448.1a196.15 196.15 0 0 1 4.44 41.63c0 108-87.52 195.48-195.49 195.48-91 0-167.43-62.14-189.24-146.29m-75.79-5.06C968 617.28 917.31 678.7 857 678.7c-72 0-130.32-87.53-130.32-195.49a289.83 289.83 0 0 1 4-48.17" fill="#c6c2a7"/><path d="M1023.62 621.83l39.84 68.69-45.68 123.83-32.74-126.07 38.58-66.45z" fill="#fccc32"/><g clip-path="url(#C)"><path d="M1017.78 814.35l-7.71-124.07 14.88-75.65-39.91 73.65 32.85 127.84" fill="#efae0c"/></g><path d="M1537.95 424.57l-518.03 123.8-361.65-140.09 8.49-197.54 43.64 129.12 309.52 205.26 446.35-195.49 73.82-127.34-2.14 202.28z" fill="#918c6f"/><path d="M174 1197.45l66-18 75.27 22.76 59.78 39.95 66.77-111.88 277.25 519.83-448.21-233.35 27.88-46.72-78.2-107.76-46.54-64.83z" fill="#c6c2a7"/><path d="M223.17 956.99l240-7.08 208.54 469.78C688 1442.5 263 1199.45 263 1199.45l25.65-40zM187 1214.45l34 48 145.44 195.56L618 1597.45l113.45 281.39-517.53-473.63L166 1295.45l-97-218 118 137z" fill="#b2ac8d"/><path d="M401.56 1253.76L388 1183.45l204.81 63.02L439.3 894.68l-.93-7.26-93.42-380.97L0 925.45l126 281 139.95 38-31.69-44.77 167.3 54.08z" fill="#918b70"/><path d="M531 662.45l127-254 2.72-103.85-315.77 201.85-74.95 91 1 120 75.9-76.39-53.9 75.39 21 167 89-115-57 100 3 163 241-318-59-51z" fill="#75705a"/><path d="M1540.09 222.29l-73.94 127.07-443.92 205.94-309.52-208.51-47.24-138.47 435.64-136.2 438.98 150.17z" fill="#e5e1c7"/><path d="M1306.74 141.43l-20.8 36.97-237.97 124.76-166.34-143.25 20.79-25.41 198.69-67 205.63 73.93z" fill="#928b71"/><path d="M1047.97 303.16l53.14-235.66-198.69 67-20.79 25.41 166.34 143.25z" fill="#75705a"/><g fill="#dddac0"><path d="M1036.42 460.26l11.55-157.1 237.97-124.76 20.8-36.97 169.02 58.22-62.74 103.51-376.6 157.1z"/><path d="M1036.42 460.26L786.9 289.29l-32.35-108.58-92.41 27.72 48.26 131.43 309.52 208.51 16.5-88.11z"/></g><g clip-path="url(#D)"><path d="M1390.48 448.1c20.544 94.805-38.48 188.638-132.832 211.171s-189.406-34.504-213.918-128.361" fill="#b2ac8d"/></g><g clip-path="url(#E)"><path d="M982.92 532.95c-13.25 77.21-58.43 134.07-112.12 134.07-64.1 0-116.06-81-116.06-181a278.23 278.23 0 0 1 3.55-44.6" fill="#b2ac8d"/></g><path d="M1308.91 478.44l-5.64 96.97-151.16 39.65-5.11-98.61 161.91-38.01z" fill="#5e6664"/><path d="M1303.27 575.41L1147 516.45l5.11 98.61 151.16-39.65z" fill="#2f423f"/><circle cx="1226.82" cy="547.78" r="42.5" fill="#fbce2a"/><g clip-path="url(#F)"><path d="M1303.27 575.41l-153.64-56.99 2.48 96.64 151.16-39.65z" fill="#efae0c"/></g><path d="M805.64 462.57l-2.44 87.79 113.19 49.09 8.75-88.17-119.5-48.71z" fill="#5e6664"/><path d="M800.76 550.36l124.38-39.08-8.75 88.17-115.63-49.09z" fill="#2f423f"/><ellipse cx="862.17" cy="829.94" rx="38.95" ry="29.84" transform="matrix(.075501 -.997146 .997146 .075501 -30.57 1325.78)" fill="#fbce2a"/><g clip-path="url(#G)"><path d="M825.73 492.48l84.7 80.57-81.21 35.11-3.49-115.68z" fill="#efae0c"/></g><path d="M1877.4 1208.83l106.28-258.76-214.86-90.11-18.49 71.62 127.07 277.25z" fill="#b4ab8c"/><path d="M1650.98 1280.45l42.19 38.92 184.23-110.54 119.6-33.38 50 19-28.66 125.28-99.35 207.93-540.63 274.94 272.62-522.15z" fill="#c6c2a7"/><path d="M1528.53 1726.36l390.46-198.7 99.35-207.93 20.66-84.28 167-136-104 278-79.04 214.9-554.5 346.56 60.07-212.55z" fill="#b2ac8d"/><path d="M1537.95 424.57l-71.68-74.94-446.35 198.74 518.03-123.8z" fill="#75705a"/><path d="M1753 932.86l-280.19 505c-16.29 22.81 404-228.07 404-228.07" fill="#b2ac8d"/><path d="M1803.39 1246.76l19.12-45.56-237.37 27.27L1735 832.45l93.58 54.97L1922 506.45l344 426-103 282-161.99 30.19.02-.2-.03.01.06-.24 5.63-44.53-203.3 47.08z" fill="#918b70"/><path d="M1674 735.45l-136.05-310.88 2.14-139.9L1922 506.45l74 93 3.33 114.7-82.28-53.09 50.95 66.39-20 147-81.68-73.71 40.68 90.71-31 124-221-277 19-3zM710.4 339.86l-52.13 68.42 361.65 140.09L710.4 339.86z" fill="#75705a"/><path d="M658 408.45l-191 248 107 78 18-23-68.48-52.49L658 408.45z" fill="#928b71"/><path d="M2215 1076.45l-51.71 139.02-162.29 28.98 129.68-61.17 84.32-106.83zm-129.71-33.98l-79 159-202.29 44.98 182.34-83.58 98.95-120.4zm-172 13l-90 148-238.29 24.98 216.47-67.73 111.82-105.25zM69 1077.45l57 129 140 38-122.44-59.17L69 1077.45zm92-16l71.29 137.02L402 1253.45l-153.59-88.58L161 1061.45zm162-18l65 140 205 63-183-91-87-112z" fill="#75705a"/><path d="M1917 661.45l82 53-98-91 16 38zm31 213l-82-74-22-53 104 127zm-74 140l-123-179-77.5-102.5-16 9 86.5 109.5 130 163zm-1527-370l-77 75 86-100-9 25zm-34 239l88-113 5-25-93 138zm35 148l132.5-199 95.5-133 16 12-104.5 137-139.5 183z" fill="#b4ab8c"/><g fill="#ff8383"><path d="M1657.5 741.95l10.19 10.89 10.14 10.92 20.17 21.95 20 22.05 20 22.13 1.49 1.66-.8 2.3-35.63 99.7-36.64 99.33-37.44 99-38.27 98.71-.17.43-.16.29-28.86 51.91-14.5 25.92-14.64 25.84-29.5 51.57-30.09 51.31 26-53.44 26.61-53.12 13.41-26.49 13.55-26.43 27.25-52.78-.33.72q18.1-49.74 36.73-99.29 18.63-49.55 37.57-99 18.93-49.42 38.35-98.67l39.37-98.29.69 4-18.8-23.12-18.71-23.19-18.58-23.31-9.23-11.7zm-1066-30l-34.93 49.88-35.45 49.48-35.77 49.24-18 24.55q-9 12.29-18 24.51l.71-6.11q29.18 63.87 57.64 128.07 28.46 64.2 56.3 128.64l13.87 32.25 6.91 16.14 6.84 16.17 13.68 32.34 6.83 16.17 6.74 16.22 13.47 32.43 13.29 32.51 13.15 32.57q3.29 8.14 6.5 16.33l6.42 16.35-7.79-15.75q-3.9-7.87-7.71-15.79l-15.25-31.64-15.11-31.71-14.93-31.78-7.46-15.9-7.37-15.93-14.73-31.88-7.35-15.94-7.29-16-14.53-32q-29-64-57.27-128.24-28.27-64.24-56-128.8l-1.43-3.34 2.14-2.77q9.3-12 18.72-24l18.76-24 37.73-47.76 38-47.52c12.64-15.83 25.68-31.38 38.67-46.99zm-18.41 660.91c7.43 10.85 14.41 21.93 21.28 33.07s13.52 22.39 20.07 33.69q19.62 33.94 37.84 68.62 18.22 34.68 35.17 70 8.41 17.7 16.42 35.62c5.28 12 10.47 24 15.2 36.26-7.43-10.84-14.41-21.92-21.29-33.06s-13.52-22.39-20.07-33.7q-19.62-33.93-37.82-68.62-18.2-34.69-35.15-70l-16.43-35.63c-5.31-11.96-10.48-24.02-15.22-36.25zM618 1597.45c6.13 11.16 11.8 22.5 17.36 33.89s10.87 22.88 16.09 34.41q15.62 34.59 29.77 69.78 14.15 35.19 27 70.9 6.36 17.89 12.27 35.95c3.89 12.06 7.68 24.16 11 36.46-6.14-11.15-11.81-22.5-17.37-33.89s-10.88-22.87-16.1-34.4q-15.6-34.61-29.74-69.79-14.14-35.18-27-70.91-6.36-17.9-12.27-36c-3.9-11.99-7.69-24.11-11.01-36.4zm760.36 205.15c16.48-37.64 34.19-74.62 52.27-111.42l55.78-109.56 58.45-108.17c19.95-35.81 40.38-71.37 62-106.3-16.46 37.64-34.16 74.63-52.25 111.42l-55.8 109.55-58.47 108.16c-19.95 35.81-40.34 71.38-61.98 106.32zm93.64 126.9c.89-8.87 2.28-17.6 3.77-26.31s3.25-17.34 5.09-25.95q5.58-25.8 12.68-51.19 7.1-25.39 15.59-50.39c2.87-8.32 5.86-16.61 9.06-24.84s6.55-16.41 10.38-24.47c-.88 8.88-2.26 17.61-3.75 26.32s-3.24 17.34-5.09 26q-5.58 25.8-12.7 51.19-7.12 25.39-15.6 50.38c-2.88 8.32-5.87 16.61-9.06 24.84s-6.59 16.37-10.37 24.42z"/><path d="M1874 1014.45c-7-6.66-13.59-13.63-20.09-20.67s-12.8-14.24-19-21.5q-18.6-21.81-36-44.58-17.4-22.77-33.56-46.41c-5.37-7.91-10.64-15.89-15.74-24s-10.06-16.33-14.64-24.84c7 6.66 13.6 13.63 20.11 20.66s12.8 14.24 19 21.5q18.6 21.81 35.94 44.59 17.34 22.78 33.55 46.42c5.37 7.91 10.64 15.89 15.74 24s10.1 16.33 14.69 24.83zm73.5-139.5a105.56 105.56 0 0 1-12.34-6.24c-3.93-2.28-7.73-4.73-11.44-7.27a232.51 232.51 0 0 1-21.17-16.49 229.31 229.31 0 0 1-19.18-18.76c-3-3.34-5.94-6.78-8.73-10.37a105.72 105.72 0 0 1-7.82-11.41 104.87 104.87 0 0 1 12.35 6.23c3.94 2.28 7.73 4.72 11.44 7.26a227.75 227.75 0 0 1 21.16 16.51 231 231 0 0 1 19.17 18.78c3 3.34 5.94 6.77 8.73 10.37a105.52 105.52 0 0 1 7.83 11.39zM348 1033.45c3-6.52 6.38-12.74 9.86-18.89s7.18-12.13 10.95-18.07q11.37-17.76 24-34.57 12.63-16.81 26.39-32.78c4.63-5.29 9.35-10.51 14.26-15.6s9.93-10.08 15.35-14.77c-3 6.52-6.37 12.74-9.85 18.89s-7.17 12.14-10.94 18.08q-11.37 17.74-24 34.56-12.63 16.82-26.41 32.77c-4.63 5.29-9.35 10.51-14.25 15.6s-9.95 10.08-15.36 14.78zm-36-152a180.4 180.4 0 0 1 8.45-16c3-5.17 6.23-10.2 9.52-15.16 6.59-9.91 13.67-19.44 21.07-28.7s15.18-18.22 23.42-26.81c4.12-4.29 8.34-8.51 12.73-12.59A178.1 178.1 0 0 1 401 770.45a177.92 177.92 0 0 1-8.44 16c-3 5.17-6.22 10.21-9.52 15.16-6.59 9.91-13.66 19.44-21.08 28.69s-15.19 18.21-23.43 26.8c-4.13 4.29-8.35 8.51-12.73 12.59a179.94 179.94 0 0 1-13.8 11.76zm1361.5-148.5l-164.71 78.38-82.6 38.64-82.74 38.34q-20.65 9.61-41.41 19.08l-41.44 19-82.91 38-83 37.7-83.1 37.52-3.81 1.71-3.29-2.54q-60.6-46.87-121-94l-60.37-47.14-60.2-47.37-30.09-23.69-30-23.8-30-23.81-15-11.9-15-12q-59.86-47.82-119.35-96.1 61.92 45.13 123.24 91.05l15.36 11.44 15.32 11.49 30.64 23 30.64 23 30.55 23.1 61.1 46.2 60.92 46.42q61 46.38 121.65 93.12l-7.1-.83 83.09-37.56 83.18-37.37 83.28-37.12 41.66-18.52q20.84-9.27 41.69-18.46l83.47-36.73 83.59-36.44 167.74-71.81z"/></g></svg>